<svg width="108" height="44" fill="none" xmlns="http://www.w3.org/2000/svg"><g clip-path="url(#clip0_22721_7780)"><path d="M17.232 24.332v-.558a1.232 1.232 0 10-2.463 0v.558a1.232 1.232 0 102.463 0z" fill="#F0145A"/><path d="M18.077 25.014A2.177 2.177 0 0116 26.564a2.177 2.177 0 01-2.077-1.55H5.44a3.47 3.47 0 01-1.496-.34v5.633c0 1.1.9 2 2 2h20.113c1.1 0 2-.9 2-2v-5.633a3.47 3.47 0 01-1.495.34h-8.484zm8.4-10.116h-4.8a3.809 3.809 0 00-3.754-3.204h-3.846a3.81 3.81 0 00-3.755 3.204h-4.8c-1.146 0-2.083.9-2.083 2v4.616a2 2 0 002 2h8.39a2.171 2.171 0 01.666-1.466c.012-.012.026-.02.039-.032.086-.08.176-.154.274-.22.036-.023.075-.039.112-.06.081-.046.161-.095.248-.13.069-.03.143-.046.215-.067.062-.019.121-.043.186-.056a2.155 2.155 0 01.862 0c.064.013.123.037.185.056.073.021.146.038.215.067.087.036.166.084.247.13.038.022.078.038.113.061.099.065.188.14.274.22.013.01.027.02.04.032.39.374.637.89.666 1.466h8.39a2 2 0 002-2V16.9c0-1.101-.938-2.001-2.084-2.001zm-14.229 0a1.93 1.93 0 011.829-1.332h3.846a1.93 1.93 0 011.829 1.332h-7.504z" fill="#F0145A"/><path d="M53.461 20.06c2.208.36 3.9 1.188 5.076 2.484 1.176 1.272 1.764 2.856 1.764 4.752 0 1.464-.384 2.82-1.152 4.068-.768 1.224-1.944 2.208-3.528 2.952-1.56.744-3.48 1.116-5.76 1.116-1.776 0-3.528-.228-5.256-.684-1.704-.48-3.156-1.152-4.356-2.016l2.268-4.464c.96.72 2.064 1.284 3.312 1.692 1.272.384 2.568.576 3.888.576 1.464 0 2.616-.276 3.456-.828.84-.576 1.26-1.38 1.26-2.412 0-2.064-1.572-3.096-4.716-3.096h-2.664v-3.852l5.184-5.868H41.51V9.8h17.64v3.78l-5.688 6.48zm20.333 15.372c-2.088 0-3.948-.516-5.58-1.548-1.632-1.032-2.916-2.52-3.852-4.464-.912-1.968-1.368-4.308-1.368-7.02 0-2.712.456-5.04 1.368-6.984.936-1.968 2.22-3.468 3.852-4.5 1.632-1.032 3.492-1.548 5.58-1.548s3.948.516 5.58 1.548c1.632 1.032 2.904 2.532 3.816 4.5.936 1.944 1.404 4.272 1.404 6.984 0 2.712-.468 5.052-1.404 7.02-.912 1.944-2.184 3.432-3.816 4.464-1.632 1.032-3.492 1.548-5.58 1.548zm0-4.932c1.536 0 2.736-.66 3.6-1.98.888-1.32 1.332-3.36 1.332-6.12 0-2.76-.444-4.8-1.332-6.12-.864-1.32-2.064-1.98-3.6-1.98-1.512 0-2.712.66-3.6 1.98-.864 1.32-1.296 3.36-1.296 6.12 0 2.76.432 4.8 1.296 6.12.888 1.32 2.088 1.98 3.6 1.98zm31.738-5.904h-6.264v6.12h-4.644v-6.12h-6.228v-4.392h6.228v-6.12h4.644v6.12h6.264v4.392z" fill="url(#paint0_linear_22721_7780)"/></g><defs><linearGradient id="paint0_linear_22721_7780" x1="40.531" y1="12.32" x2="108.08" y2="12.556" gradientUnits="userSpaceOnUse"><stop stop-color="#F0145A"/><stop offset="1" stop-color="#EF8080"/></linearGradient><clipPath id="clip0_22721_7780"><path fill="#fff" d="M0 0h108v44H0z"/></clipPath></defs></svg>