<svg width="132" height="44" fill="none" xmlns="http://www.w3.org/2000/svg"><g clip-path="url(#clip0_22721_7785)"><path d="M16.097 9.553c-6.844 0-12.413 5.568-12.413 12.413 0 6.845 5.569 12.414 12.413 12.414 6.845 0 12.413-5.569 12.413-12.414S22.942 9.553 16.097 9.553zm6.859 11.505v.001l-3.594 2.6 1.384 4.23a.669.669 0 01-1.027.752l-3.621-2.62-3.622 2.62a.67.67 0 01-1.027-.752l1.385-4.23-3.594-2.6a.668.668 0 01.392-1.21h4.449l1.377-4.211a.67.67 0 011.28 0l1.377 4.21h4.449a.669.669 0 01.392 1.21z" fill="#F0145A"/><path d="M50.06 19.268c3.552 0 6.168.708 7.848 2.124 1.704 1.416 2.556 3.312 2.556 5.688 0 1.536-.384 2.94-1.152 4.212-.768 1.248-1.944 2.256-3.528 3.024-1.56.744-3.492 1.116-5.796 1.116-1.776 0-3.528-.228-5.256-.684-1.704-.48-3.156-1.152-4.356-2.016l2.304-4.464c.96.72 2.064 1.284 3.312 1.692 1.248.384 2.532.576 3.852.576 1.464 0 2.616-.288 3.456-.864.84-.576 1.26-1.38 1.26-2.412 0-1.08-.444-1.896-1.332-2.448-.864-.552-2.376-.828-4.536-.828h-6.444L43.544 9.8h15.372v4.68H48.404l-.396 4.788h2.052zm23.57 16.164c-2.088 0-3.948-.516-5.58-1.548-1.632-1.032-2.916-2.52-3.852-4.464-.912-1.968-1.368-4.308-1.368-7.02 0-2.712.456-5.04 1.368-6.984.936-1.968 2.22-3.468 3.852-4.5 1.632-1.032 3.492-1.548 5.58-1.548s3.948.516 5.58 1.548c1.632 1.032 2.904 2.532 3.816 4.5.936 1.944 1.404 4.272 1.404 6.984 0 2.712-.468 5.052-1.404 7.02-.912 1.944-2.184 3.432-3.816 4.464-1.632 1.032-3.492 1.548-5.58 1.548zm0-4.932c1.536 0 2.736-.66 3.6-1.98.888-1.32 1.332-3.36 1.332-6.12 0-2.76-.444-4.8-1.332-6.12-.864-1.32-2.064-1.98-3.6-1.98-1.512 0-2.712.66-3.6 1.98-.864 1.32-1.296 3.36-1.296 6.12 0 2.76.432 4.8 1.296 6.12.888 1.32 2.088 1.98 3.6 1.98zm24.433 4.932c-2.088 0-3.948-.516-5.58-1.548-1.632-1.032-2.916-2.52-3.852-4.464-.912-1.968-1.368-4.308-1.368-7.02 0-2.712.456-5.04 1.368-6.984.936-1.968 2.22-3.468 3.852-4.5 1.632-1.032 3.492-1.548 5.58-1.548s3.948.516 5.58 1.548c1.632 1.032 2.904 2.532 3.816 4.5.936 1.944 1.404 4.272 1.404 6.984 0 2.712-.468 5.052-1.404 7.02-.912 1.944-2.184 3.432-3.816 4.464-1.632 1.032-3.492 1.548-5.58 1.548zm0-4.932c1.536 0 2.736-.66 3.6-1.98.888-1.32 1.332-3.36 1.332-6.12 0-2.76-.444-4.8-1.332-6.12-.864-1.32-2.064-1.98-3.6-1.98-1.512 0-2.712.66-3.6 1.98-.864 1.32-1.296 3.36-1.296 6.12 0 2.76.432 4.8 1.296 6.12.888 1.32 2.088 1.98 3.6 1.98zm31.739-5.904h-6.264v6.12h-4.644v-6.12h-6.228v-4.392h6.228v-6.12h4.644v6.12h6.264v4.392z" fill="url(#paint0_linear_22721_7785)"/></g><defs><linearGradient id="paint0_linear_22721_7785" x1="40.719" y1="12.32" x2="132.108" y2="12.751" gradientUnits="userSpaceOnUse"><stop stop-color="#F0145A"/><stop offset="1" stop-color="#EF8080"/></linearGradient><clipPath id="clip0_22721_7785"><path fill="#fff" d="M0 0h132v44H0z"/></clipPath></defs></svg>