<svg width="101" height="44" fill="none" xmlns="http://www.w3.org/2000/svg"><g clip-path="url(#clip0_22721_7775)"><path d="M27.114 12.305a.82.82 0 00-.598-.252c-.115 0-.356.094-.723.28-.368.185-.758.392-1.168.623-.412.23-.899.438-1.46.624-.562.185-1.082.28-1.56.28-.443 0-.833-.085-1.169-.253-1.114-.522-2.084-.912-2.907-1.169a8.879 8.879 0 00-2.655-.385c-1.636 0-3.5.532-5.589 1.594-.43.215-.74.381-.94.503l-.198-1.455a2.11 2.11 0 00.738-1.598 2.124 2.124 0 10-4.25 0c0 .766.41 1.431 1.017 1.805l2.87 21.045a1.25 1.25 0 002.477-.337l-1.154-8.46c2.093-1.038 3.904-1.562 5.427-1.562.646 0 1.277.097 1.891.292.615.195 1.127.407 1.534.637.407.23.887.443 1.44.637a4.91 4.91 0 001.64.292c1.362 0 2.995-.513 4.897-1.54.24-.124.414-.246.525-.365.11-.12.166-.29.166-.51v-10.13a.82.82 0 00-.251-.597z" fill="#F0145A"/><path d="M51.513 9.8V35H45.68V14.48h-5.04V9.8h10.872zM66.69 35.432c-2.088 0-3.948-.516-5.58-1.548-1.632-1.032-2.916-2.52-3.852-4.464-.912-1.968-1.368-4.308-1.368-7.02 0-2.712.456-5.04 1.368-6.984.936-1.968 2.22-3.468 3.852-4.5 1.632-1.032 3.492-1.548 5.58-1.548s3.948.516 5.58 1.548c1.632 1.032 2.904 2.532 3.816 4.5.936 1.944 1.404 4.272 1.404 6.984 0 2.712-.468 5.052-1.404 7.02-.912 1.944-2.184 3.432-3.816 4.464-1.632 1.032-3.492 1.548-5.58 1.548zm0-4.932c1.536 0 2.736-.66 3.6-1.98.888-1.32 1.332-3.36 1.332-6.12 0-2.76-.444-4.8-1.332-6.12-.864-1.32-2.064-1.98-3.6-1.98-1.512 0-2.712.66-3.6 1.98-.864 1.32-1.296 3.36-1.296 6.12 0 2.76.432 4.8 1.296 6.12.888 1.32 2.088 1.98 3.6 1.98zm31.739-5.904h-6.264v6.12H87.52v-6.12h-6.227v-4.392h6.227v-6.12h4.645v6.12h6.263v4.392z" fill="url(#paint0_linear_22721_7775)"/></g><defs><linearGradient id="paint0_linear_22721_7775" x1="40.477" y1="12.32" x2="101.072" y2="12.51" gradientUnits="userSpaceOnUse"><stop stop-color="#F0145A"/><stop offset="1" stop-color="#EF8080"/></linearGradient><clipPath id="clip0_22721_7775"><path fill="#fff" d="M0 0h101v44H0z"/></clipPath></defs></svg>